<svg id="Слой_1" data-name="Слой 1" xmlns="http://www.w3.org/2000/svg" viewBox="0 0 716.09 81.31"><defs><style>.cls-1{fill:#3463ac;}.cls-2{fill:#fff;}.cls-3{fill:none;stroke:#ab3536;stroke-miterlimit:10;stroke-width:2px;}.cls-4{fill:#0080ff;}.cls-5{fill:red;}</style></defs><path class="cls-1" d="M724,57.31c-3.1,5.55-7.77,10.48-12.83,14.83-32.53,27.92-83.47-5.37-181.37-6.28-57.17-.53-54.82,6.28-124.34,8C323.29,75.93,315.51,61,255.89,67.66c-55.95,6.21-90-3.31-160.66,13.41-17,4-42.69,10.56-62.17-3.27A53.75,53.75,0,0,1,15.72,56c-4.54-10.28-5.42-20.93-1-27.31s24.66-8.34,64.79-7.2c51.84,1.5,50.33-7,112.56-9.8,86.67-3.86,89.51,12.7,175.4,9.8,58-1.94,55.29-9.44,111.08-9.24,75.29.28,74,13.91,121.25,7.29,46.4-6.51,87.78-17.26,106.67-5.9,13.68,8.24,18.24,15.78,19.63,19.65A27.62,27.62,0,0,1,724,57.31Z" transform="translate(-11.83 -4.87)"/><path class="cls-1" d="M14.73,28.72S47.82,4.45,96.4,15.59c33.55,7.69,110.77-2.92,110.77-2.92l-2.71,27.76L89.37,58.29,17.11,31Z" transform="translate(-11.83 -4.87)"/><path class="cls-1" d="M15.83,33.1" transform="translate(-11.83 -4.87)"/><path class="cls-2" d="M74.58,60c-1.59-1.06-4.19-1.6-7.83-1.6l-21.09-.1V48H61.4c3.5,0,6.09-.48,7.73-1.42a5,5,0,0,0,2.48-4.7q0-4-2.09-5.65T62.28,34.6H45.56V23.22H66.75c3.64,0,6.24-.56,7.83-1.69S77,18.4,77,15.54Q77,11,74.19,9.22c-1.85-1.17-4.64-1.74-8.41-1.74H34.29q-11.08,0-11.09,11.66v41q0,7.77,2.67,10.84c1.73,2,4.41,3,8.06,3H66.47c3.41-.06,6-.68,7.72-1.83S77,68.82,77,65.7Q77,61.62,74.58,60Z" transform="translate(-11.83 -4.87)"/><path class="cls-2" d="M178.11,60c-1.58-1.06-4.19-1.6-7.82-1.6l-21.09-.1V48h15.74c3.5,0,6.08-.48,7.73-1.42a5,5,0,0,0,2.48-4.7q0-4-2.1-5.65t-7.23-1.65H149.1V23.22h21.19q5.44,0,7.82-1.69t2.38-6c0-3-.91-5.15-2.77-6.32s-4.64-1.74-8.4-1.74h-31.5q-11.08,0-11.09,11.66v41q0,7.77,2.67,10.84c1.8,2,4.59,3.06,8.42,3.06h31.5q5.64,0,8.4-1.84c1.86-1.23,2.77-3.41,2.77-6.53Q180.49,61.62,178.11,60Z" transform="translate(-11.83 -4.87)"/><path class="cls-2" d="M219.29,43.54a5.14,5.14,0,0,0-2.92-2.38,17.16,17.16,0,0,0-5.55-.73H197.31q-8.55,0-8.55,7.2,0,6.81,7.88,6.8H210c3.56,0,6.14-.47,7.77-1.41s2.43-2.61,2.43-5A9.69,9.69,0,0,0,219.29,43.54Z" transform="translate(-11.83 -4.87)"/><path class="cls-2" d="M113.27,43.54a5.11,5.11,0,0,0-2.92-2.38,17.14,17.14,0,0,0-5.54-.73H91.3q-8.56,0-8.56,7.2,0,6.81,7.88,6.8h13.31c3.57,0,6.16-.47,7.79-1.41s2.42-2.61,2.42-5A9.69,9.69,0,0,0,113.27,43.54Z" transform="translate(-11.83 -4.87)"/><path class="cls-2" d="M289.18,9.42c-1.62-1.29-4.24-1.94-7.88-1.94H239.7a23.25,23.25,0,0,0-6.51.73,6.51,6.51,0,0,0-3.65,2.48,8.21,8.21,0,0,0-1.22,4.75c0,3.31,1,5.61,3.07,6.91s5.1,1.95,9.19,1.95h8.26L249,60.17q.09,7.77,2.67,10.84c1.72,2,4.49,3.06,8.32,3.06a13.3,13.3,0,0,0,6.27-1.27A8.51,8.51,0,0,0,270,68.29a23.27,23.27,0,0,0,1.37-8.81V24.3h9a21.74,21.74,0,0,0,6-.69,7.13,7.13,0,0,0,3.75-2.47,8,8,0,0,0,1.41-5C291.62,13,290.8,10.71,289.18,9.42Z" transform="translate(-11.83 -4.87)"/><path class="cls-2" d="M357.14,10.1q-2.82-2.72-8.46-2.72a22.14,22.14,0,0,0-4.37.39,11.83,11.83,0,0,0-3.5,1.45,6.77,6.77,0,0,0-2.53,3.31,17.05,17.05,0,0,0-.78,5.55v7a15.49,15.49,0,0,1-.29,3.3,6.48,6.48,0,0,1-1,2.53A4,4,0,0,1,334,32.75a11.47,11.47,0,0,1-4,.59,9,9,0,0,1-4-.77A5.41,5.41,0,0,1,323.5,30a12.62,12.62,0,0,1-1-5V18.17c0-4.34-1-7.23-3-8.65s-4.83-2.14-8.64-2.14a9.94,9.94,0,0,0-7.69,3.31A11.49,11.49,0,0,0,300.07,19v4.18q0,13.32,7.2,19.93T330,49.76c1.43,0,2.86-.06,4.28-.19V52.1l-.09.2c0,3.17-.85,5.6-2.53,7.28s-4.57,2.63-8.66,2.63a15.76,15.76,0,0,1-4.85-.78,24.33,24.33,0,0,1-4.38-1.75A29.41,29.41,0,0,0,310,57.93a9.37,9.37,0,0,0-3.4-.78,4.49,4.49,0,0,0-3.31,1.27,4.41,4.41,0,0,0-1.17,2.92A6.29,6.29,0,0,0,303.87,65a23.29,23.29,0,0,0,4.67,4.38A26.76,26.76,0,0,0,316.7,73a39,39,0,0,0,11.18,1.55,44.53,44.53,0,0,0,12.93-1.66,21.47,21.47,0,0,0,8.94-5.05,24.17,24.17,0,0,0,5.45-7.59A42.07,42.07,0,0,0,358.11,50q.39-2.53,1.17-13.51c.45-7,.69-11.41.69-13.23V19C360,14.9,359,11.92,357.14,10.1Z" transform="translate(-11.83 -4.87)"/><path class="cls-2" d="M400.41,43.54a5.13,5.13,0,0,0-2.93-2.38,17.09,17.09,0,0,0-5.54-.73H378.43q-8.56,0-8.56,7.2,0,6.81,7.88,6.8h13.31c3.58,0,6.16-.47,7.79-1.41s2.42-2.61,2.42-5A9.83,9.83,0,0,0,400.41,43.54Z" transform="translate(-11.83 -4.87)"/><path class="cls-2" d="M466.65,21.63a20.91,20.91,0,0,0-6.12-7.69,29.74,29.74,0,0,0-9.29-4.76,38.07,38.07,0,0,0-11.66-1.7H422.27a12.18,12.18,0,0,0-8.46,2.87q-3.21,2.87-3.21,8.79v41q0,7.77,2.83,10.84c1.88,2,4.82,3.06,8.84,3.06s7-1.11,8.94-3.35,2.92-6,2.92-11.24V54h5.55a40.43,40.43,0,0,0,14.68-2.52,24.11,24.11,0,0,0,10.49-7.64,18.9,18.9,0,0,0,4-12A23.43,23.43,0,0,0,466.65,21.63ZM445.46,35.81a7.31,7.31,0,0,1-2.67,3.37,11.47,11.47,0,0,1-3.85,1.64,21.58,21.58,0,0,1-4.81.49V19.92a34.1,34.1,0,0,1,5.5.34,10.27,10.27,0,0,1,3.69,1.4,5.63,5.63,0,0,1,2.38,3.17,19.17,19.17,0,0,1,.68,5.69A13.47,13.47,0,0,1,445.46,35.81Z" transform="translate(-11.83 -4.87)"/><path class="cls-2" d="M534.66,10.1c-1.88-1.81-4.71-2.72-8.47-2.72a22,22,0,0,0-4.36.39,11.72,11.72,0,0,0-3.5,1.45,6.73,6.73,0,0,0-2.54,3.31,17.35,17.35,0,0,0-.77,5.55v7a15.49,15.49,0,0,1-.29,3.3,6.64,6.64,0,0,1-1,2.53,4,4,0,0,1-2.23,1.84,11.54,11.54,0,0,1-4,.59,9,9,0,0,1-4-.77A5.41,5.41,0,0,1,501,30a12.61,12.61,0,0,1-1-5V18.17c0-4.34-1-7.23-3-8.65s-4.83-2.14-8.64-2.14a9.91,9.91,0,0,0-7.69,3.31A11.49,11.49,0,0,0,477.59,19v4.18q0,13.32,7.2,19.93t22.74,6.61c1.43,0,2.86-.06,4.27-.19V52.1l-.08.2c0,3.17-.86,5.6-2.54,7.28s-4.56,2.63-8.65,2.63a15.82,15.82,0,0,1-4.86-.78,24.51,24.51,0,0,1-4.37-1.75,30,30,0,0,0-3.79-1.75,9.45,9.45,0,0,0-3.4-.78,4.48,4.48,0,0,0-3.31,1.27,4.41,4.41,0,0,0-1.17,2.92A6.37,6.37,0,0,0,481.37,65a23.94,23.94,0,0,0,4.68,4.38,26.83,26.83,0,0,0,8.17,3.6,39,39,0,0,0,11.17,1.55,44.56,44.56,0,0,0,12.94-1.66,21.53,21.53,0,0,0,8.94-5.05,24.13,24.13,0,0,0,5.44-7.59A41.64,41.64,0,0,0,535.62,50q.4-2.53,1.17-13.51c.45-7,.69-11.41.69-13.23V19Q537.48,12.83,534.66,10.1Z" transform="translate(-11.83 -4.87)"/><path class="cls-2" d="M577.92,43.54A5.11,5.11,0,0,0,575,41.16a17.16,17.16,0,0,0-5.55-.73H556q-8.57,0-8.56,7.2,0,6.81,7.88,6.8h13.32q5.34,0,7.78-1.41t2.42-5A9.69,9.69,0,0,0,577.92,43.54Z" transform="translate(-11.83 -4.87)"/><path class="cls-2" d="M644.16,21.63A20.81,20.81,0,0,0,638,13.94a29.69,29.69,0,0,0-9.28-4.76,38.09,38.09,0,0,0-11.67-1.7H599.78a12.18,12.18,0,0,0-8.45,2.87c-2.13,1.91-3.21,4.84-3.21,8.79v41q0,7.77,2.82,10.84c1.88,2,4.83,3.06,8.84,3.06s7-1.11,9-3.35,2.92-6,2.92-11.24V54h5.54a40.39,40.39,0,0,0,14.68-2.52,24.14,24.14,0,0,0,10.5-7.64,18.9,18.9,0,0,0,4-12A23.44,23.44,0,0,0,644.16,21.63ZM623,35.81a7.44,7.44,0,0,1-2.67,3.37,11.5,11.5,0,0,1-3.84,1.64,21.8,21.8,0,0,1-4.82.49V19.92a34,34,0,0,1,5.49.34,10.27,10.27,0,0,1,3.69,1.4,5.69,5.69,0,0,1,2.39,3.17,19.22,19.22,0,0,1,.67,5.69A13.66,13.66,0,0,1,623,35.81Z" transform="translate(-11.83 -4.87)"/><path class="cls-2" d="M712.17,10.1q-2.82-2.72-8.46-2.72a22.14,22.14,0,0,0-4.37.39,11.94,11.94,0,0,0-3.5,1.45,6.77,6.77,0,0,0-2.53,3.31,17.05,17.05,0,0,0-.78,5.55v7a15.49,15.49,0,0,1-.29,3.3,5.53,5.53,0,0,1-.46,1.56,6.55,6.55,0,0,1-.52,1A4,4,0,0,1,689,32.75a11.47,11.47,0,0,1-4,.59,8.94,8.94,0,0,1-4-.77A5.47,5.47,0,0,1,678.53,30a.94.94,0,0,1,0-.09,12.67,12.67,0,0,1-.93-4.86V18.17c0-4.34-1-7.23-3-8.65s-4.83-2.14-8.64-2.14a9.94,9.94,0,0,0-7.69,3.31A11.49,11.49,0,0,0,655.1,19v4.18a39.35,39.35,0,0,0,.54,6.72q1.41,8.4,6.66,13.21,7.29,6.63,22.74,6.61c1.43,0,2.86-.06,4.28-.19V52.1l-.09.2c0,.26,0,.51,0,.76a9.4,9.4,0,0,1-2.51,6.52c-1.68,1.76-4.57,2.63-8.66,2.63a15.81,15.81,0,0,1-4.85-.78,24.94,24.94,0,0,1-4.38-1.75A29.41,29.41,0,0,0,665,57.93a9.37,9.37,0,0,0-3.4-.78,4.49,4.49,0,0,0-3.31,1.27,4.4,4.4,0,0,0-1.16,2.92A6.33,6.33,0,0,0,658.9,65a23.29,23.29,0,0,0,4.67,4.38,26.87,26.87,0,0,0,8.16,3.6,39,39,0,0,0,11.18,1.55,44.49,44.49,0,0,0,12.93-1.66,21.57,21.57,0,0,0,8.95-5.05,24.13,24.13,0,0,0,5.44-7.59,38.77,38.77,0,0,0,2.32-7.2c.21-1,.41-2,.59-3.1q.39-2.53,1.17-13.51c.16-2.49.3-4.66.4-6.51q.28-5,.29-6.72V19Q715,12.83,712.17,10.1Z" transform="translate(-11.83 -4.87)"/><path class="cls-3" d="M362,128.26" transform="translate(-11.83 -4.87)"/><path class="cls-2" d="M77,65.7q0,4.68-2.77,6.53c-1.73,1.15-4.31,1.77-7.72,1.83H33.93c-3.65,0-6.33-1.07-8.06-3S23.2,65.35,23.2,60.17V51.64H45.66v6.68l21.09.1c3.64,0,6.24.54,7.83,1.6S77,63,77,65.7Z" transform="translate(-11.83 -4.87)"/><path class="cls-2" d="M34.28,75.32c-4.18,0-7.33-1.17-9.35-3.49s-3-6.11-3-11.66v-41c0-8.45,4.26-12.92,12.33-12.92h31.5c4,0,7,.64,9.08,2,2.23,1.4,3.36,3.89,3.36,7.38,0,3.26-1,5.62-2.91,7s-4.62,1.93-8.56,1.93H46.81v8.87H62.28c3.76,0,6.38.63,8,1.92s2.57,3.58,2.57,6.62a6.22,6.22,0,0,1-3.11,5.81c-1.87,1.06-4.6,1.57-8.35,1.57H46.91v7.8l19.85.09c3.91,0,6.7.6,8.52,1.82s2.94,3.58,2.94,6.73c0,3.54-1.12,6.09-3.33,7.56s-5.06,2-9.11,2Z" transform="translate(-11.83 -4.87)"/><path class="cls-1" d="M65.78,7.48q5.64,0,8.41,1.75T77,15.55q0,4.27-2.38,6t-7.83,1.71H45.56V34.6H62.28q5.16,0,7.24,1.65c1.4,1.11,2.09,3,2.09,5.64a5,5,0,0,1-2.47,4.72c-1.66.94-4.23,1.41-7.73,1.41H45.66v10.3l21.09.1q5.44,0,7.83,1.6T77,65.71q0,4.67-2.77,6.51c-1.85,1.24-4.65,1.85-8.41,1.85H34.28q-5.73,0-8.41-3.06T23.2,60.17v-41q0-11.65,11.08-11.66h31.5m0-2.51H34.28c-8.76,0-13.59,5-13.59,14.17v41c0,5.87,1.08,10,3.29,12.49s5.74,3.92,10.3,3.92h31.5c4.31,0,7.51-.74,9.8-2.27,2.58-1.72,3.89-4.61,3.89-8.6,0-3.6-1.17-6.21-3.49-7.77-2-1.37-5-2-9.23-2l-18.58-.09v-5.3H61.41c4,0,6.91-.56,9-1.73a7.41,7.41,0,0,0,3.74-6.9c0-3.45-1-6-3-7.6s-4.75-2.2-8.8-2.2H48.07V25.73H66.75C71,25.73,74,25,76,23.57c2.28-1.63,3.43-4.33,3.43-8,0-4.92-2.14-7.31-3.94-8.44C73.25,5.67,70.06,5,65.78,5Z" transform="translate(-11.83 -4.87)"/><path class="cls-2" d="M137.82,75.32c-4.19,0-7.33-1.17-9.36-3.49s-3-6.11-3-11.66v-41c0-8.45,4.27-12.92,12.34-12.92h31.5c4,0,7,.64,9.08,2,2.22,1.4,3.35,3.89,3.35,7.38,0,3.26-1,5.62-2.91,7s-4.62,1.93-8.55,1.93H150.35v8.87h15.47c3.76,0,6.38.63,8,1.92s2.56,3.58,2.56,6.62a6.22,6.22,0,0,1-3.11,5.81c-1.86,1.06-4.59,1.57-8.35,1.57H150.45v7.8l19.84.09c3.92,0,6.71.6,8.53,1.82s2.93,3.58,2.93,6.73c0,3.54-1.12,6.09-3.33,7.56s-5,2-9.1,2Z" transform="translate(-11.83 -4.87)"/><path class="cls-1" d="M169.32,7.48c3.75,0,6.56.58,8.41,1.75s2.77,3.27,2.77,6.32q0,4.27-2.39,6t-7.82,1.71H149.1V34.6h16.72c3.43,0,5.85.55,7.24,1.65s2.09,3,2.09,5.64a5,5,0,0,1-2.48,4.72Q170.2,48,164.94,48H149.19v10.3l21.1.1q5.44,0,7.82,1.6t2.39,5.69c0,3.11-.93,5.28-2.77,6.51s-4.66,1.85-8.41,1.85h-31.5q-5.74,0-8.41-3.06t-2.67-10.84v-41q0-11.65,11.08-11.66h31.5m0-2.51h-31.5c-8.77,0-13.59,5-13.59,14.17v41c0,5.87,1.07,10,3.29,12.49s5.74,3.92,10.3,3.92h31.5c4.3,0,7.51-.74,9.8-2.27,2.58-1.72,3.89-4.61,3.89-8.6,0-3.6-1.18-6.21-3.49-7.77-2-1.37-5.05-2-9.23-2l-18.59-.09v-5.3h13.24c4,0,6.92-.56,9-1.73a7.41,7.41,0,0,0,3.75-6.9c0-3.45-1-6-3-7.6s-4.75-2.2-8.8-2.2H151.6V25.73h18.69c4.2,0,7.24-.7,9.28-2.16,2.28-1.63,3.44-4.33,3.44-8,0-4.92-2.15-7.31-3.94-8.44C176.79,5.67,173.6,5,169.32,5Z" transform="translate(-11.83 -4.87)"/><path class="cls-2" d="M196.63,55.69c-7.54,0-9.12-4.39-9.12-8.06,0-3.86,1.7-8.45,9.81-8.45h13.51a18,18,0,0,1,6,.8,6.28,6.28,0,0,1,3.6,3,10.67,10.67,0,0,1,1,5.06c0,2.86-1,4.91-3.06,6.09-1.83,1.06-4.58,1.58-8.41,1.58Z" transform="translate(-11.83 -4.87)"/><path class="cls-1" d="M210.83,40.43a17.14,17.14,0,0,1,5.54.73,5.1,5.1,0,0,1,2.92,2.38,9.72,9.72,0,0,1,.87,4.48q0,3.58-2.43,5T210,54.43H196.63q-7.87,0-7.87-6.8,0-7.2,8.56-7.2h13.51m0-2.51H197.32c-7,0-11.07,3.54-11.07,9.71,0,5.92,3.79,9.31,10.38,9.31H210c4.06,0,7-.57,9-1.75,1.68-1,3.68-3,3.68-7.17a11.85,11.85,0,0,0-1.17-5.65,7.46,7.46,0,0,0-4.29-3.57,19.1,19.1,0,0,0-6.38-.88Z" transform="translate(-11.83 -4.87)"/><path class="cls-2" d="M90.62,55.69c-7.55,0-9.13-4.39-9.13-8.06,0-3.86,1.7-8.45,9.81-8.45h13.51a18,18,0,0,1,6,.8,6.28,6.28,0,0,1,3.6,3,10.65,10.65,0,0,1,1,5.06c0,2.86-1,4.91-3.06,6.09-1.83,1.06-4.58,1.58-8.41,1.58Z" transform="translate(-11.83 -4.87)"/><path class="cls-1" d="M104.81,40.43a17.14,17.14,0,0,1,5.54.73,5.1,5.1,0,0,1,2.92,2.38,9.72,9.72,0,0,1,.87,4.48q0,3.58-2.43,5t-7.78,1.41H90.62q-7.89,0-7.88-6.8,0-7.2,8.56-7.2h13.51m0-2.51H91.3c-7,0-11.07,3.54-11.07,9.71,0,5.92,3.79,9.31,10.39,9.31h13.31c4.06,0,7-.57,9-1.75,1.68-1,3.68-3,3.68-7.17a11.85,11.85,0,0,0-1.17-5.65,7.46,7.46,0,0,0-4.29-3.57,19.1,19.1,0,0,0-6.38-.88Z" transform="translate(-11.83 -4.87)"/><path class="cls-2" d="M260,75.32c-4.2,0-7.32-1.18-9.27-3.51s-2.9-6.09-3-11.63l-.19-34.63h-7c-4.37,0-7.6-.7-9.86-2.14-2.42-1.53-3.65-4.21-3.65-8A9.5,9.5,0,0,1,228.51,10a7.78,7.78,0,0,1,4.32-3,25.06,25.06,0,0,1,6.87-.78h41.61c4,0,6.79.73,8.66,2.22s2.9,4.13,2.9,7.69a9.13,9.13,0,0,1-1.68,5.78,8.46,8.46,0,0,1-4.38,2.91,23.48,23.48,0,0,1-6.37.73h-7.79V59.49a24.54,24.54,0,0,1-1.46,9.28,9.79,9.79,0,0,1-4.31,5.14A14.6,14.6,0,0,1,260,75.32Z" transform="translate(-11.83 -4.87)"/><path class="cls-1" d="M281.31,7.48q5.44,0,7.87,1.94c1.62,1.3,2.44,3.53,2.44,6.71a8,8,0,0,1-1.41,5,7.2,7.2,0,0,1-3.75,2.48,22.13,22.13,0,0,1-6,.68h-9.05V59.49a23.27,23.27,0,0,1-1.36,8.8,8.61,8.61,0,0,1-3.74,4.52A13.43,13.43,0,0,1,260,74.07q-5.74,0-8.31-3.06T249,60.17l-.19-35.87h-8.26q-6.14,0-9.19-1.95c-2-1.29-3.06-3.6-3.06-6.9a8.2,8.2,0,0,1,1.21-4.76,6.51,6.51,0,0,1,3.65-2.48,23.25,23.25,0,0,1,6.51-.73h41.61m0-2.51H239.7a25.64,25.64,0,0,0-7.23.83,9.06,9.06,0,0,0-5,3.45,10.73,10.73,0,0,0-1.66,6.2c0,4.2,1.42,7.24,4.23,9C232.52,26,236,26.8,240.58,26.8h5.76l.19,33.38c.07,5.86,1.13,9.92,3.26,12.44s5.65,4,10.23,4A15.65,15.65,0,0,0,267.47,75a11,11,0,0,0,4.88-5.77,25.53,25.53,0,0,0,1.55-9.76V26.8h6.54a24.15,24.15,0,0,0,6.73-.78,9.63,9.63,0,0,0,5-3.34,10.35,10.35,0,0,0,1.94-6.55c0-4-1.13-6.88-3.37-8.67S285.56,5,281.31,5Z" transform="translate(-11.83 -4.87)"/><path class="cls-2" d="M327.88,75.81a39.91,39.91,0,0,1-11.55-1.61,28,28,0,0,1-8.52-3.77,25.47,25.47,0,0,1-4.94-4.63,7.38,7.38,0,0,1-2-4.47,5.64,5.64,0,0,1,1.47-3.73,5.75,5.75,0,0,1,4.26-1.7,10.4,10.4,0,0,1,3.87.87,30.85,30.85,0,0,1,3.93,1.81,23.79,23.79,0,0,0,4.13,1.65A14.76,14.76,0,0,0,323,61c3.7,0,6.31-.76,7.75-2.25s2.17-3.6,2.17-6.42V52l.1-.19v-.87c-1,.06-2,.09-3,.09-10.58,0-18.52-2.33-23.6-6.94s-7.6-11.65-7.6-20.85V19.05a12.76,12.76,0,0,1,3.46-9.24,11.19,11.19,0,0,1,8.58-3.69c4.08,0,7.24.81,9.4,2.39,2.33,1.66,3.53,4.91,3.53,9.66v6.9a11.24,11.24,0,0,0,.85,4.42,4,4,0,0,0,1.89,1.92,7.76,7.76,0,0,0,3.49.67,10.44,10.44,0,0,0,3.54-.5,2.76,2.76,0,0,0,1.57-1.27,5.54,5.54,0,0,0,.84-2.12,14.27,14.27,0,0,0,.28-3.12v-7a18.38,18.38,0,0,1,.84-6,8,8,0,0,1,3-3.95A13.09,13.09,0,0,1,344,6.54a23.58,23.58,0,0,1,4.65-.42c4.08,0,7.22,1,9.33,3.08s3.2,5.37,3.2,9.85v4.18c0,1.85-.22,6.2-.68,13.3-.53,7.44-.91,11.89-1.18,13.62a43.41,43.41,0,0,1-3,10.62,25.31,25.31,0,0,1-5.73,8,22.71,22.71,0,0,1-9.44,5.34A45.93,45.93,0,0,1,327.88,75.81Z" transform="translate(-11.83 -4.87)"/><path class="cls-1" d="M348.68,7.38q5.64,0,8.46,2.72t2.82,9v4.18q0,2.72-.68,13.22-.78,11-1.17,13.51a42.74,42.74,0,0,1-2.91,10.31,24.12,24.12,0,0,1-5.45,7.58,21.47,21.47,0,0,1-8.94,5.05,44.49,44.49,0,0,1-12.93,1.66A38.39,38.39,0,0,1,316.7,73a26.59,26.59,0,0,1-8.17-3.6A23.82,23.82,0,0,1,303.86,65a6.35,6.35,0,0,1-1.75-3.7,4.4,4.4,0,0,1,1.17-2.91,4.49,4.49,0,0,1,3.31-1.27,9.37,9.37,0,0,1,3.4.78,30.82,30.82,0,0,1,3.79,1.75,25.41,25.41,0,0,0,4.38,1.75,15.82,15.82,0,0,0,4.86.78c4.08,0,7-.88,8.65-2.62s2.53-4.12,2.53-7.3l.09-.19V49.57c-1.42.13-2.85.2-4.27.2q-15.47,0-22.75-6.62t-7.2-19.92V19.05a11.5,11.5,0,0,1,3.11-8.36,9.92,9.92,0,0,1,7.68-3.31c3.83,0,6.71.71,8.66,2.14s3,4.31,3,8.65v6.9a12.62,12.62,0,0,0,1,5A5.3,5.3,0,0,0,326,32.56a8.91,8.91,0,0,0,4,.78,11.44,11.44,0,0,0,4-.59,4,4,0,0,0,2.24-1.84,6.84,6.84,0,0,0,1-2.53,15.53,15.53,0,0,0,.29-3.31v-7a17,17,0,0,1,.78-5.54,6.64,6.64,0,0,1,2.53-3.3,11.26,11.26,0,0,1,3.5-1.46,21.4,21.4,0,0,1,4.37-.39m0-2.51a24.37,24.37,0,0,0-4.89.44,14.12,14.12,0,0,0-4.29,1.78h0l0,0a9.18,9.18,0,0,0-3.5,4.5v0l0,.05a19.16,19.16,0,0,0-.92,6.36v7a12.88,12.88,0,0,1-.22,2.74l0,.09V28a4.39,4.39,0,0,1-.63,1.59l0,.06,0,.07a1.51,1.51,0,0,1-.91.68,8.9,8.9,0,0,1-3.1.43,6.55,6.55,0,0,1-2.87-.51l-.06,0-.06,0a2.86,2.86,0,0,1-1.28-1.35A10.26,10.26,0,0,1,325,25V18.17c0-5.18-1.37-8.78-4.07-10.7-2.38-1.74-5.7-2.6-10.11-2.6a12.38,12.38,0,0,0-9.5,4.1,14,14,0,0,0-3.8,10.08v4.18c0,9.57,2.7,16.89,8,21.77s13.55,7.27,24.45,7.27c.55,0,1.11,0,1.67,0v0c0,2.51-.59,4.31-1.8,5.52S326.32,59.7,323,59.7a13.31,13.31,0,0,1-4.1-.66A22.53,22.53,0,0,1,315,57.47a32.08,32.08,0,0,0-4.09-1.88,11.58,11.58,0,0,0-4.29-.94,7,7,0,0,0-5.08,2l-.07.07-.07.08a6.87,6.87,0,0,0-1.76,4.54,8.49,8.49,0,0,0,2.29,5.26A26,26,0,0,0,307,71.42h0l0,0a28.73,28.73,0,0,0,8.93,4,40.83,40.83,0,0,0,11.87,1.66,47.42,47.42,0,0,0,13.66-1.77,24,24,0,0,0,10-5.65,26.67,26.67,0,0,0,6-8.35,45.12,45.12,0,0,0,3.11-10.93c.27-1.79.66-6.28,1.19-13.74.46-7.15.69-11.53.69-13.4V19.05c0-4.84-1.21-8.45-3.59-10.75s-5.79-3.43-10.2-3.43Z" transform="translate(-11.83 -4.87)"/><path class="cls-2" d="M377.75,55.69c-7.55,0-9.13-4.39-9.13-8.06,0-3.86,1.7-8.45,9.81-8.45h13.51a18.08,18.08,0,0,1,6,.8,6.31,6.31,0,0,1,3.6,3,10.68,10.68,0,0,1,1,5.06c0,2.86-1,4.91-3.06,6.09-1.83,1.06-4.58,1.58-8.4,1.58Z" transform="translate(-11.83 -4.87)"/><path class="cls-1" d="M391.94,40.43a17.14,17.14,0,0,1,5.54.73,5.07,5.07,0,0,1,2.92,2.38,9.72,9.72,0,0,1,.87,4.48q0,3.58-2.43,5t-7.77,1.41H377.75q-7.87,0-7.88-6.8,0-7.2,8.56-7.2h13.51m0-2.51H378.43c-7,0-11.06,3.54-11.06,9.71,0,5.92,3.78,9.31,10.38,9.31h13.32c4.05,0,7-.57,9-1.75,1.68-1,3.68-3,3.68-7.17a12,12,0,0,0-1.16-5.65,7.52,7.52,0,0,0-4.29-3.57,19.16,19.16,0,0,0-6.39-.88Z" transform="translate(-11.83 -4.87)"/><path class="cls-2" d="M422.27,75.32c-4.36,0-7.65-1.16-9.77-3.46s-3.15-6.13-3.15-11.69v-41c0-4.3,1.22-7.58,3.63-9.73a13.44,13.44,0,0,1,9.29-3.19h17.31a39.63,39.63,0,0,1,12,1.76,31.18,31.18,0,0,1,9.68,5,22.39,22.39,0,0,1,6.49,8.13,25.07,25.07,0,0,1,2.3,10.8,20.28,20.28,0,0,1-4.25,12.78,25.3,25.3,0,0,1-11,8,41.63,41.63,0,0,1-15.14,2.62h-4.28v4.19c0,5.61-1.06,9.56-3.23,12.05S426.65,75.32,422.27,75.32ZM435.39,40a17.22,17.22,0,0,0,3.27-.42,10.48,10.48,0,0,0,3.43-1.47,6.09,6.09,0,0,0,2.21-2.8,12.42,12.42,0,0,0,.83-4.81,18,18,0,0,0-.62-5.3,4.38,4.38,0,0,0-1.86-2.49,8.79,8.79,0,0,0-3.24-1.23,28.22,28.22,0,0,0-4-.31Z" transform="translate(-11.83 -4.87)"/><path class="cls-1" d="M439.58,7.48a38.07,38.07,0,0,1,11.66,1.7,29.53,29.53,0,0,1,9.29,4.76,21,21,0,0,1,6.12,7.68,23.65,23.65,0,0,1,2.19,10.26,18.9,18.9,0,0,1-4,12,24,24,0,0,1-10.5,7.64A40.39,40.39,0,0,1,439.67,54h-5.54v5.45q0,7.87-2.91,11.23t-9,3.35q-6,0-8.84-3.06t-2.82-10.84v-41q0-5.93,3.2-8.8a12.23,12.23,0,0,1,8.46-2.86h17.31m-5.45,33.83a21.1,21.1,0,0,0,4.82-.49,11.52,11.52,0,0,0,3.84-1.65,7.43,7.43,0,0,0,2.67-3.35,13.74,13.74,0,0,0,.92-5.3,19.13,19.13,0,0,0-.68-5.69,5.65,5.65,0,0,0-2.38-3.16,10.17,10.17,0,0,0-3.69-1.41,34.1,34.1,0,0,0-5.5-.34V41.31M439.58,5H422.27a14.73,14.73,0,0,0-10.13,3.5c-2.68,2.4-4,6-4,10.67v41c0,5.89,1.14,10,3.48,12.54s6,3.87,10.69,3.87,8.41-1.42,10.84-4.22,3.53-6.94,3.53-12.87V56.55h3a43,43,0,0,0,15.59-2.7,26.58,26.58,0,0,0,11.57-8.42,21.47,21.47,0,0,0,4.52-13.55,26.25,26.25,0,0,0-2.43-11.33A23.54,23.54,0,0,0,462.07,12,32.27,32.27,0,0,0,452,6.79,40.83,40.83,0,0,0,439.58,5Zm-2.94,33.7V22.48a23.57,23.57,0,0,1,2.56.25A7.69,7.69,0,0,1,442,23.79a3.22,3.22,0,0,1,1.33,1.82,16.82,16.82,0,0,1,.55,4.91,11.23,11.23,0,0,1-.72,4.32,4.8,4.8,0,0,1-1.76,2.24,9,9,0,0,1-3,1.3,16.6,16.6,0,0,1-1.74.29Z" transform="translate(-11.83 -4.87)"/><path class="cls-2" d="M505.39,75.81a39.89,39.89,0,0,1-11.54-1.61,28,28,0,0,1-8.53-3.77,25.08,25.08,0,0,1-4.93-4.63,7.32,7.32,0,0,1-2-4.47,5.68,5.68,0,0,1,1.46-3.73,5.75,5.75,0,0,1,4.26-1.7,10.56,10.56,0,0,1,3.87.87,30.85,30.85,0,0,1,3.93,1.81A23.6,23.6,0,0,0,496,60.23a14.69,14.69,0,0,0,4.49.73c3.71,0,6.32-.76,7.75-2.25s2.18-3.6,2.18-6.42V52l.09-.2v-.87c-1,.06-2,.09-3,.09C497,51,489,48.69,483.94,44.08s-7.61-11.65-7.61-20.85V19.05a12.77,12.77,0,0,1,3.47-9.24,11.19,11.19,0,0,1,8.58-3.69c4.08,0,7.24.81,9.39,2.39,2.34,1.66,3.53,4.91,3.53,9.66v6.9a11.43,11.43,0,0,0,.85,4.42,4,4,0,0,0,1.9,1.92,7.68,7.68,0,0,0,3.48.67,10.54,10.54,0,0,0,3.55-.5,2.79,2.79,0,0,0,1.57-1.27,5.89,5.89,0,0,0,.84-2.12,14.34,14.34,0,0,0,.27-3.12v-7a18.36,18.36,0,0,1,.85-6,8,8,0,0,1,3-3.95,13.14,13.14,0,0,1,3.91-1.63,23.51,23.51,0,0,1,4.65-.42c4.07,0,7.21,1,9.33,3.08s3.2,5.36,3.2,9.85v4.18c0,1.85-.22,6.2-.68,13.3-.53,7.43-.92,11.89-1.18,13.62a44,44,0,0,1-3,10.62,25.35,25.35,0,0,1-5.73,8,22.71,22.71,0,0,1-9.44,5.34A46,46,0,0,1,505.39,75.81Z" transform="translate(-11.83 -4.87)"/><path class="cls-1" d="M526.2,7.38q5.64,0,8.46,2.72c1.87,1.82,2.82,4.8,2.82,9v4.18q0,2.72-.69,13.22-.76,11-1.16,13.51a42.28,42.28,0,0,1-2.92,10.31,24.09,24.09,0,0,1-5.44,7.58,21.57,21.57,0,0,1-8.95,5.05,44.49,44.49,0,0,1-12.93,1.66A38.44,38.44,0,0,1,494.21,73a26.52,26.52,0,0,1-8.16-3.6A23.54,23.54,0,0,1,481.38,65a6.29,6.29,0,0,1-1.75-3.7,4.4,4.4,0,0,1,1.17-2.91,4.47,4.47,0,0,1,3.3-1.27,9.32,9.32,0,0,1,3.4.78,30.3,30.3,0,0,1,3.8,1.75,25.62,25.62,0,0,0,4.37,1.75,15.82,15.82,0,0,0,4.86.78c4.08,0,7-.88,8.66-2.62s2.52-4.12,2.52-7.3l.1-.19V49.57c-1.43.13-2.85.2-4.28.2q-15.45,0-22.75-6.62t-7.19-19.92V19.05a11.5,11.5,0,0,1,3.11-8.36,9.92,9.92,0,0,1,7.68-3.31c3.82,0,6.71.71,8.65,2.14s3,4.31,3,8.65v6.9a12.62,12.62,0,0,0,1,5,5.3,5.3,0,0,0,2.53,2.53,8.84,8.84,0,0,0,4,.78,11.51,11.51,0,0,0,4-.59,4,4,0,0,0,2.23-1.84,6.87,6.87,0,0,0,1-2.53,15.53,15.53,0,0,0,.29-3.31v-7a17,17,0,0,1,.78-5.54,6.63,6.63,0,0,1,2.52-3.3,11.46,11.46,0,0,1,3.5-1.46,21.44,21.44,0,0,1,4.38-.39m0-2.51a24.3,24.3,0,0,0-4.89.44A14,14,0,0,0,517,7.09h0l0,0a9.13,9.13,0,0,0-3.5,4.5l0,0v.05a19.16,19.16,0,0,0-.92,6.36v7a12,12,0,0,1-.23,2.74l0,.09V28a4.39,4.39,0,0,1-.63,1.59l0,.06,0,.07a1.54,1.54,0,0,1-.91.68,9,9,0,0,1-3.11.43,6.54,6.54,0,0,1-2.86-.51l-.06,0-.06,0a2.92,2.92,0,0,1-1.29-1.35,10.26,10.26,0,0,1-.71-3.88V18.17c0-5.18-1.36-8.78-4.06-10.7-2.38-1.74-5.7-2.6-10.11-2.6A12.39,12.39,0,0,0,478.87,9a14,14,0,0,0-3.79,10.08v4.18c0,9.57,2.69,16.89,8,21.77s13.54,7.27,24.44,7.27c.56,0,1.12,0,1.67,0v0c0,2.51-.58,4.31-1.79,5.52s-3.57,1.89-6.88,1.89a13.3,13.3,0,0,1-4.09-.66,22.53,22.53,0,0,1-3.95-1.57,32.73,32.73,0,0,0-4.09-1.88,11.63,11.63,0,0,0-4.3-.94,7,7,0,0,0-5.08,2l-.07.07-.06.08a6.88,6.88,0,0,0-1.77,4.54,8.45,8.45,0,0,0,2.3,5.26,26.25,26.25,0,0,0,5.13,4.83h0l0,0a28.9,28.9,0,0,0,8.94,4,40.81,40.81,0,0,0,11.86,1.66,47.37,47.37,0,0,0,13.66-1.77,24.14,24.14,0,0,0,10-5.65,26.67,26.67,0,0,0,6-8.35,45.13,45.13,0,0,0,3.1-10.93c.28-1.79.67-6.28,1.2-13.74.46-7.15.68-11.53.68-13.4V19.05c0-4.84-1.2-8.45-3.58-10.75s-5.79-3.43-10.2-3.43Z" transform="translate(-11.83 -4.87)"/><path class="cls-2" d="M555.26,55.69c-7.54,0-9.12-4.39-9.12-8.06,0-3.86,1.7-8.45,9.81-8.45h13.51a18,18,0,0,1,6,.8,6.28,6.28,0,0,1,3.6,3A10.68,10.68,0,0,1,580,48c0,2.86-1,4.91-3,6.09-1.83,1.06-4.58,1.58-8.41,1.58Z" transform="translate(-11.83 -4.87)"/><path class="cls-1" d="M569.46,40.43a17.14,17.14,0,0,1,5.54.73,5.1,5.1,0,0,1,2.92,2.38,9.72,9.72,0,0,1,.87,4.48q0,3.58-2.43,5t-7.78,1.41H555.26q-7.86,0-7.87-6.8,0-7.2,8.56-7.2h13.51m0-2.51H556c-7,0-11.07,3.54-11.07,9.71,0,5.92,3.79,9.31,10.38,9.31h13.32c4.06,0,7-.57,9-1.75,1.68-1,3.68-3,3.68-7.17a11.85,11.85,0,0,0-1.17-5.65,7.46,7.46,0,0,0-4.29-3.57,19.14,19.14,0,0,0-6.38-.88Z" transform="translate(-11.83 -4.87)"/><path class="cls-2" d="M599.79,75.32c-4.37,0-7.65-1.16-9.77-3.46s-3.15-6.13-3.15-11.69v-41c0-4.3,1.22-7.58,3.62-9.73a13.48,13.48,0,0,1,9.3-3.19h17.3a39.7,39.7,0,0,1,12,1.76,31.12,31.12,0,0,1,9.67,5,22.28,22.28,0,0,1,6.49,8.13,25.08,25.08,0,0,1,2.31,10.8,20.28,20.28,0,0,1-4.25,12.78,25.28,25.28,0,0,1-11,8,41.54,41.54,0,0,1-15.13,2.62H612.9v4.19c0,5.61-1,9.56-3.22,12.05S604.17,75.32,599.79,75.32ZM612.9,40a17.44,17.44,0,0,0,3.28-.42,10.48,10.48,0,0,0,3.43-1.47,6.09,6.09,0,0,0,2.21-2.8,12.43,12.43,0,0,0,.82-4.81,18,18,0,0,0-.61-5.3,4.46,4.46,0,0,0-1.86-2.49,8.92,8.92,0,0,0-3.24-1.23,26.85,26.85,0,0,0-4-.31Z" transform="translate(-11.83 -4.87)"/><path class="cls-1" d="M617.09,7.48a38.14,38.14,0,0,1,11.67,1.7A29.48,29.48,0,0,1,638,13.94a20.88,20.88,0,0,1,6.13,7.68,23.65,23.65,0,0,1,2.19,10.26,18.9,18.9,0,0,1-4,12,24.06,24.06,0,0,1-10.5,7.64A40.39,40.39,0,0,1,617.19,54h-5.54v5.45q0,7.87-2.92,11.23t-8.94,3.35q-6,0-8.85-3.06t-2.82-10.84v-41q0-5.93,3.21-8.8a12.23,12.23,0,0,1,8.46-2.86h17.3m-5.44,33.83a21,21,0,0,0,4.81-.49,11.52,11.52,0,0,0,3.84-1.65A7.3,7.3,0,0,0,623,35.82a13.55,13.55,0,0,0,.93-5.3,19.13,19.13,0,0,0-.68-5.69,5.7,5.7,0,0,0-2.38-3.16,10.22,10.22,0,0,0-3.7-1.41,34,34,0,0,0-5.49-.34V41.31M617.09,5h-17.3a14.71,14.71,0,0,0-10.13,3.5c-2.69,2.4-4,6-4,10.67v41c0,5.89,1.14,10,3.49,12.54s6,3.87,10.69,3.87,8.4-1.42,10.84-4.22,3.53-6.94,3.53-12.87V56.55h3a43,43,0,0,0,15.59-2.7,26.64,26.64,0,0,0,11.57-8.42,21.52,21.52,0,0,0,4.51-13.55,26.25,26.25,0,0,0-2.42-11.33A23.56,23.56,0,0,0,639.58,12a32.21,32.21,0,0,0-10.06-5.17A41,41,0,0,0,617.09,5Zm-2.93,33.7V22.48a23.57,23.57,0,0,1,2.56.25,7.64,7.64,0,0,1,2.78,1.06,3.13,3.13,0,0,1,1.33,1.82,16.76,16.76,0,0,1,.56,4.91,11,11,0,0,1-.73,4.32,4.73,4.73,0,0,1-1.75,2.24,9,9,0,0,1-3,1.3,16,16,0,0,1-1.73.29Z" transform="translate(-11.83 -4.87)"/><path class="cls-2" d="M682.91,75.81a39.84,39.84,0,0,1-11.54-1.61,28,28,0,0,1-8.53-3.77,25.17,25.17,0,0,1-4.94-4.63,7.38,7.38,0,0,1-2-4.47,5.69,5.69,0,0,1,1.47-3.73,5.75,5.75,0,0,1,4.26-1.7,10.4,10.4,0,0,1,3.87.87,30.85,30.85,0,0,1,3.93,1.81,23.6,23.6,0,0,0,4.14,1.65,14.65,14.65,0,0,0,4.49.73c3.71,0,6.31-.76,7.75-2.25s2.17-3.6,2.17-6.42V52l.1-.2v-.87c-1,.06-2,.09-3,.09-10.58,0-18.52-2.33-23.59-6.94s-7.61-11.65-7.61-20.85V19.05a12.77,12.77,0,0,1,3.47-9.24,11.18,11.18,0,0,1,8.58-3.69c4.07,0,7.23.81,9.39,2.39,2.33,1.66,3.53,4.91,3.53,9.66v6.9a11.24,11.24,0,0,0,.85,4.42,4,4,0,0,0,1.89,1.92,7.76,7.76,0,0,0,3.49.67,10.44,10.44,0,0,0,3.54-.5,2.82,2.82,0,0,0,1.58-1.27,5.68,5.68,0,0,0,.83-2.12,14.27,14.27,0,0,0,.28-3.12v-7a18.09,18.09,0,0,1,.85-6,8,8,0,0,1,3-3.95,13.14,13.14,0,0,1,3.91-1.63,23.4,23.4,0,0,1,4.64-.42c4.08,0,7.22,1,9.33,3.08s3.21,5.37,3.21,9.85v4.18c0,1.83-.23,6.19-.69,13.3-.53,7.44-.91,11.9-1.18,13.62a43,43,0,0,1-3,10.62,25.31,25.31,0,0,1-5.73,8,22.71,22.71,0,0,1-9.44,5.34A45.88,45.88,0,0,1,682.91,75.81Z" transform="translate(-11.83 -4.87)"/><path class="cls-1" d="M703.71,7.38q5.64,0,8.46,2.72t2.82,9v4.18q0,2.72-.68,13.22-.78,11-1.17,13.51a42.29,42.29,0,0,1-2.91,10.31,24,24,0,0,1-5.45,7.58,21.47,21.47,0,0,1-8.94,5.05,44.49,44.49,0,0,1-12.93,1.66A38.39,38.39,0,0,1,671.73,73a26.59,26.59,0,0,1-8.17-3.6A23.46,23.46,0,0,1,658.9,65a6.29,6.29,0,0,1-1.75-3.7,4.44,4.44,0,0,1,1.16-2.91,4.49,4.49,0,0,1,3.31-1.27,9.37,9.37,0,0,1,3.4.78,30.15,30.15,0,0,1,3.79,1.75,25.41,25.41,0,0,0,4.38,1.75,15.82,15.82,0,0,0,4.86.78c4.08,0,7-.88,8.65-2.62s2.53-4.12,2.53-7.3l.1-.19V49.57c-1.43.13-2.86.2-4.28.2q-15.46,0-22.75-6.62t-7.19-19.92V19.05a11.45,11.45,0,0,1,3.11-8.36,9.9,9.9,0,0,1,7.68-3.31q5.73,0,8.65,2.14c2,1.42,3,4.31,3,8.65v6.9a12.8,12.8,0,0,0,1,5,5.34,5.34,0,0,0,2.53,2.53,8.91,8.91,0,0,0,4,.78,11.41,11.41,0,0,0,4-.59,4,4,0,0,0,2.24-1.84,6.84,6.84,0,0,0,1-2.53,14.9,14.9,0,0,0,.29-3.31v-7a17,17,0,0,1,.78-5.54,6.7,6.7,0,0,1,2.53-3.3,11.36,11.36,0,0,1,3.5-1.46,21.4,21.4,0,0,1,4.37-.39m0-2.51a24.44,24.44,0,0,0-4.89.44,14.12,14.12,0,0,0-4.29,1.78h0l0,0a9.07,9.07,0,0,0-3.5,4.5l0,0,0,.05a19.16,19.16,0,0,0-.92,6.36v7a12.88,12.88,0,0,1-.22,2.74l0,.09,0,.1a4.39,4.39,0,0,1-.63,1.59l0,.06,0,.07a1.51,1.51,0,0,1-.91.68,8.9,8.9,0,0,1-3.1.43,6.51,6.51,0,0,1-2.86-.51l-.06,0-.06,0a2.83,2.83,0,0,1-1.29-1.35,10.26,10.26,0,0,1-.71-3.88V18.17c0-5.18-1.37-8.78-4.07-10.7-2.38-1.74-5.69-2.6-10.1-2.6A12.39,12.39,0,0,0,656.39,9a14,14,0,0,0-3.79,10.08v4.18c0,9.57,2.69,16.89,8,21.77s13.55,7.27,24.45,7.27c.55,0,1.11,0,1.67,0v0c0,2.51-.59,4.31-1.79,5.52s-3.57,1.89-6.88,1.89A13.36,13.36,0,0,1,674,59,22.1,22.1,0,0,1,670,57.47a32.73,32.73,0,0,0-4.09-1.88,11.67,11.67,0,0,0-4.3-.94,7,7,0,0,0-5.08,2l-.07.07-.06.08a6.83,6.83,0,0,0-1.77,4.54,8.49,8.49,0,0,0,2.29,5.26,26.33,26.33,0,0,0,5.14,4.83h0l0,0a28.8,28.8,0,0,0,8.94,4,40.76,40.76,0,0,0,11.86,1.66,47.37,47.37,0,0,0,13.66-1.77,24,24,0,0,0,10-5.65,26.67,26.67,0,0,0,6-8.35,44.68,44.68,0,0,0,3.11-10.93c.28-1.79.66-6.28,1.19-13.74.47-7.15.69-11.53.69-13.4V19.05c0-4.84-1.21-8.45-3.59-10.75s-5.78-3.43-10.2-3.43Z" transform="translate(-11.83 -4.87)"/><path d="M77,15.54q0,4.29-2.38,6c-1.59,1.13-4.19,1.69-7.83,1.69H45.56v6H23.2V19.14q0-11.65,11.09-11.66H65.78c3.77,0,6.56.57,8.41,1.74S77,12.5,77,15.54Z" transform="translate(-11.83 -4.87)"/><path class="cls-4" d="M71.61,41.9a5,5,0,0,1-2.48,4.7C67.49,47.54,64.9,48,61.4,48H45.66v3.62H23.2V29.23H45.56V34.6H62.28q5.16,0,7.24,1.65T71.61,41.9Z" transform="translate(-11.83 -4.87)"/><path class="cls-2" d="M677.57,25.08a12.67,12.67,0,0,0,.93,4.86H655.64a39.35,39.35,0,0,1-.54-6.72V19a11.49,11.49,0,0,1,3.11-8.35,9.94,9.94,0,0,1,7.69-3.31c3.81,0,6.7.71,8.64,2.14s3,4.31,3,8.65Z" transform="translate(-11.83 -4.87)"/><path class="cls-2" d="M715,19v4.18q0,1.76-.29,6.72H691.78a5.53,5.53,0,0,0,.46-1.56,15.49,15.49,0,0,0,.29-3.3v-7a17.05,17.05,0,0,1,.78-5.55,6.77,6.77,0,0,1,2.53-3.31,11.94,11.94,0,0,1,3.5-1.45,22.14,22.14,0,0,1,4.37-.39q5.64,0,8.46,2.72T715,19Z" transform="translate(-11.83 -4.87)"/><path class="cls-4" d="M714.71,29.94c-.1,1.85-.24,4-.4,6.51q-.78,11-1.17,13.51c-.18,1.07-.38,2.11-.59,3.1H689.21c0-.25,0-.5,0-.76l.09-.2V49.57c-1.42.13-2.85.19-4.28.19q-15.45,0-22.74-6.61-5.25-4.82-6.66-13.21H678.5a.94.94,0,0,0,0,.09,5.47,5.47,0,0,0,2.54,2.54,8.94,8.94,0,0,0,4,.77,11.47,11.47,0,0,0,4-.59,4,4,0,0,0,2.23-1.84,6.55,6.55,0,0,0,.52-1Z" transform="translate(-11.83 -4.87)"/><path class="cls-5" d="M712.55,53.06a38.77,38.77,0,0,1-2.32,7.2,24.13,24.13,0,0,1-5.44,7.59,21.57,21.57,0,0,1-8.95,5.05,44.49,44.49,0,0,1-12.93,1.66A39,39,0,0,1,671.73,73a26.87,26.87,0,0,1-8.16-3.6A23.29,23.29,0,0,1,658.9,65a6.33,6.33,0,0,1-1.75-3.69,4.4,4.4,0,0,1,1.16-2.92,4.49,4.49,0,0,1,3.31-1.27,9.37,9.37,0,0,1,3.4.78,29.41,29.41,0,0,1,3.79,1.75,24.94,24.94,0,0,0,4.38,1.75,15.81,15.81,0,0,0,4.85.78c4.09,0,7-.87,8.66-2.63a9.4,9.4,0,0,0,2.51-6.52Z" transform="translate(-11.83 -4.87)"/></svg>